<?xml version="1.0" encoding="utf-8"?>
<!-- Generator: Adobe Illustrator 23.0.2, SVG Export Plug-In . SVG Version: 6.00 Build 0)  -->
<svg version="1.1" id="Layer_1" xmlns="http://www.w3.org/2000/svg" xmlns:xlink="http://www.w3.org/1999/xlink" x="0px" y="0px"
	 viewBox="0 0 864 864" style="enable-background:new 0 0 864 864;" xml:space="preserve">
<style type="text/css">
	.st0{fill-rule:evenodd;clip-rule:evenodd;fill:#5757B3;}
	.st1{fill-rule:evenodd;clip-rule:evenodd;fill:#F1DE2F;}
</style>
<g>
	<g>
		<path class="st0" d="M8.3,141.2L8.3,141.2C8.3,63.2,71.5,0,149.5,0h564.9l0,0c37.5,0,73.4,14.9,99.9,41.4
			c26.5,26.5,41.4,62.4,41.4,99.9v581.5c0,78-63.2,141.2-141.2,141.2H149.5c-78,0-141.2-63.2-141.2-141.2V141.2z"/>
		<g>
			
				<image style="overflow:visible;opacity:0.51;" width="619" height="762" xlink:href="265D0A12.png"  transform="matrix(1 0 0 1 103 97)">
			</image>
			<g>
				<polygon class="st1" points="667,151.5 249.6,151.5 249.6,151.6 157.9,151.5 290.6,340.2 214.1,343.4 339.5,522.7 276.3,520.6 
					480,804 480,804.2 480.2,804.2 480.3,804.4 480.3,804.2 480.4,804.2 480.4,804.2 480.4,804.2 666.5,804.2 666.5,677 480,677 
					480,677 449.6,677 416.8,541.1 667,541.1 667,413.8 420.9,413.8 390.7,340.2 442,342.9 429.2,278.7 667,278.7 				"/>
			</g>
		</g>
	</g>
</g>
</svg>
